<svg xmlns="http://www.w3.org/2000/svg" xmlns:xlink="http://www.w3.org/1999/xlink" width="107" height="28" viewBox="0 0 107 28">
    <defs>
        <path id="a" d="M.023.091h7.77v7.437H.023z"/>
    </defs>
    <g fill="none" fill-rule="evenodd">
        <g transform="translate(50.98 .096)">
            <mask id="b" fill="#fff">
                <use xlink:href="#a"/>
            </mask>
            <path fill="#2E108E" d="M6.164 5.055a.35.35 0 0 1 .103-.316l1.367-1.315a.51.51 0 0 0 .133-.53.511.511 0 0 0-.419-.35l-1.88-.261a.351.351 0 0 1-.268-.195L4.371.38a.511.511 0 0 0-.463-.29.512.512 0 0 0-.463.29l-.829 1.707a.351.351 0 0 1-.268.195l-1.88.26a.511.511 0 0 0-.419.35.511.511 0 0 0 .133.531L1.55 4.74c.084.082.123.2.102.316L1.32 6.922a.511.511 0 0 0 .204.507c.161.117.37.131.545.038l1.674-.894a.351.351 0 0 1 .332 0l1.674.894a.517.517 0 0 0 .545-.038.51.51 0 0 0 .205-.507l-.334-1.867z" mask="url(#b)"/>
        </g>
        <path fill="#2E108E" d="M30.797 17.278c-.53.56-1.183.832-1.996.832a2.55 2.55 0 0 1-1.954-.847c-.545-.581-.81-1.313-.81-2.237 0-.915.26-1.638.793-2.208.523-.558 1.163-.83 1.96-.83.822 0 1.48.268 2.01.82.538.557.799 1.28.799 2.207 0 .952-.262 1.693-.802 2.263m3.75-9.106h-1.792c-.515 0-.97.307-1.177.756a5.993 5.993 0 0 0-1.071-.602 5.923 5.923 0 0 0-2.356-.475c-1.801 0-3.352.689-4.609 2.047-1.243 1.345-1.874 3.082-1.874 5.163 0 2.014.651 3.727 1.935 5.091 1.295 1.375 2.856 2.073 4.64 2.073.797 0 1.551-.146 2.24-.432.34-.142.682-.33 1.021-.56.147.553.652.961 1.25.961h1.793c.714 0 1.294-.58 1.294-1.293V9.465c0-.713-.58-1.293-1.294-1.293M46.345 17.037c-.514.53-1.155.786-1.959.786-.829 0-1.495-.266-2.036-.813-.544-.55-.808-1.243-.808-2.122 0-.841.258-1.516.788-2.062.526-.54 1.18-.803 1.999-.803.835 0 1.493.257 2.011.787.522.535.776 1.222.776 2.101 0 .896-.253 1.592-.771 2.126m3.685-8.865h-1.781c-.526 0-.985.315-1.186.774a6.123 6.123 0 0 0-1.17-.652 5.929 5.929 0 0 0-2.276-.443c-1.7 0-3.183.608-4.408 1.808-1.343 1.317-2.024 3.073-2.024 5.218 0 2.009.642 3.698 1.906 5.02 1.272 1.332 2.853 2.006 4.698 2.006.841 0 1.61-.136 2.286-.405.287-.115.57-.261.848-.437.176.97-.234 1.614-.234 1.614-.164.322-.874 1.104-2.462 1.167-.779.03-1.776-.236-2.363-.788a1.307 1.307 0 0 0-.897-.361h-2.16c-.46 0-.876.236-1.112.63a1.276 1.276 0 0 0-.032 1.269c.26.487.584.93.96 1.32a6.195 6.195 0 0 0 2.346 1.5c.9.33 2.01.497 3.302.497 2.477 0 4.371-.753 5.629-2.238.878-1.028 1.423-2.609 1.423-5.607V9.465c0-.713-.58-1.293-1.293-1.293M55.784 8.172H53.99c-.713 0-1.294.58-1.294 1.293V20.61c0 .713.58 1.293 1.294 1.293h1.793c.713 0 1.293-.58 1.293-1.293V9.465c0-.713-.58-1.293-1.293-1.293M69.734 8.657c-1.07-.535-2.288-.806-3.62-.806-1.437 0-2.758.318-3.928.946-1.179.633-2.112 1.518-2.772 2.63a7.06 7.06 0 0 0-.995 3.657c0 1.902.686 3.583 2.039 4.997 1.36 1.422 3.247 2.144 5.61 2.144 2.314 0 4.203-.745 5.613-2.213a1.294 1.294 0 0 0-.207-1.958l-1.38-.945a1.287 1.287 0 0 0-1.615.124c-.63.59-1.444.877-2.487.877-.975 0-1.732-.272-2.314-.833-.576-.555-.856-1.26-.856-2.153 0-.925.293-1.657.896-2.24.61-.587 1.398-.873 2.412-.873.558 0 1.044.084 1.445.25.3.125.614.335.934.623.412.37 1.012.442 1.494.177l1.483-.816a1.297 1.297 0 0 0 .335-2.003 6.985 6.985 0 0 0-2.087-1.585M82.325 17.262a2.565 2.565 0 0 1-1.963.848c-.816 0-1.472-.272-2.005-.833-.541-.57-.804-1.31-.804-2.262 0-.927.262-1.65.8-2.207.534-.552 1.19-.82 2.01-.82.807 0 1.454.272 1.98.83.534.571.795 1.293.795 2.208 0 .923-.266 1.655-.813 2.236m-1.308-9.411c-.831 0-1.625.16-2.359.475-.372.16-.735.363-1.082.606a1.298 1.298 0 0 0-1.18-.76h-1.769c-.713 0-1.293.58-1.293 1.293v15.713c0 .713.58 1.293 1.293 1.293h1.77c.713 0 1.294-.58 1.294-1.293V21.26c.327.218.658.397.987.533a5.85 5.85 0 0 0 2.247.432c1.786 0 3.348-.697 4.644-2.073 1.285-1.364 1.937-3.077 1.937-5.091 0-2.08-.631-3.818-1.876-5.163-1.258-1.358-2.81-2.047-4.613-2.047M91.827 8.172h-1.792c-.714 0-1.294.58-1.294 1.293V20.61c0 .713.58 1.293 1.294 1.293h1.792c.714 0 1.294-.58 1.294-1.293V9.465c0-.713-.58-1.293-1.294-1.293M18.19 8.562c-.77-.472-1.668-.711-2.669-.711a5.64 5.64 0 0 0-2.663.646 5.524 5.524 0 0 0-1.486 1.152 4.54 4.54 0 0 0-1.248-1.133 4.617 4.617 0 0 0-2.438-.665 5.86 5.86 0 0 0-2.395.49 5.606 5.606 0 0 0-1.024.594 1.295 1.295 0 0 0-1.18-.763H1.293C.58 8.172 0 8.752 0 9.465V20.61c0 .713.58 1.293 1.294 1.293h1.792c.714 0 1.294-.58 1.294-1.293v-7.18a1.814 1.814 0 0 1 3.629 0l.004 2.56v4.584a1.33 1.33 0 0 0 1.33 1.33h1.684a1.33 1.33 0 0 0 1.33-1.33V13.43a1.814 1.814 0 0 1 3.628 0v2.92h-.004v4.261c0 .713.58 1.293 1.293 1.293h1.816c.713 0 1.293-.58 1.293-1.293V13.96c0-1.602-.162-2.747-.495-3.5-.346-.78-.917-1.418-1.697-1.897M105.686 9.331h-.001c-.98-.982-2.19-1.48-3.593-1.48-.682 0-1.357.133-2.006.397a6.519 6.519 0 0 0-1.199.662 1.288 1.288 0 0 0-1.169-.738h-1.793c-.713 0-1.293.58-1.293 1.293V20.61c0 .713.58 1.293 1.293 1.293h1.793c.713 0 1.294-.58 1.294-1.293v-4.268l.003-2.913a1.797 1.797 0 0 1 3.596 0v7.181c0 .713.58 1.293 1.293 1.293h1.758c.714 0 1.294-.58 1.294-1.293v-7.58c0-1.602-.427-2.846-1.27-3.699"/>
    </g>
</svg>
